<?xml version="1.0" encoding="UTF-8" standalone="no"?>
<!-- Created with Inkscape (http://www.inkscape.org/) -->

<svg
   xmlns:dc="http://purl.org/dc/elements/1.1/"
   xmlns:cc="http://creativecommons.org/ns#"
   xmlns:rdf="http://www.w3.org/1999/02/22-rdf-syntax-ns#"
   xmlns:svg="http://www.w3.org/2000/svg"
   xmlns="http://www.w3.org/2000/svg"
   xmlns:sodipodi="http://sodipodi.sourceforge.net/DTD/sodipodi-0.dtd"
   xmlns:inkscape="http://www.inkscape.org/namespaces/inkscape"
   version="1.1"
   id="svg2"
   xml:space="preserve"
   width="297mm"
   height="210mm"
   viewBox="0 0 1122.5197 793.70079"
   sodipodi:docname="logo.svg"
   inkscape:version="0.92.4 (5da689c313, 2019-01-14)"><metadata
     id="metadata8"><rdf:RDF><cc:Work
         rdf:about=""><dc:format>image/svg+xml</dc:format><dc:type
           rdf:resource="http://purl.org/dc/dcmitype/StillImage" /><dc:title></dc:title></cc:Work></rdf:RDF></metadata><defs
     id="defs6" /><sodipodi:namedview
     pagecolor="#ffffff"
     bordercolor="#666666"
     borderopacity="1"
     objecttolerance="10"
     gridtolerance="10"
     guidetolerance="10"
     inkscape:pageopacity="0"
     inkscape:pageshadow="2"
     inkscape:window-width="1920"
     inkscape:window-height="1135"
     id="namedview4"
     showgrid="false"
     inkscape:zoom="0.37926636"
     inkscape:cx="818.7603"
     inkscape:cy="214.54413"
     inkscape:window-x="1920"
     inkscape:window-y="0"
     inkscape:window-maximized="1"
     inkscape:current-layer="g10"
     units="mm" /><g
     id="g10"
     inkscape:groupmode="layer"
     inkscape:label="ink_ext_XXXXXX"
     transform="matrix(1.3333333,0,0,-1.3333333,0,793.70079)"><g
       id="g12"
       transform="matrix(0.04289542,0,0,0.04289542,3.7762714,291.64825)"
       inkscape:export-xdpi="29"
       inkscape:export-ydpi="29"><path
         d="m 5.46875,1199.21 c 0,625.12 506.73825,1131.86 1131.85125,1131.86 625.11,0 1131.86,-506.74 1131.86,-1131.86 C 2269.18,574.102 1762.43,67.3633 1137.32,67.3633 512.207,67.3633 5.46875,574.102 5.46875,1199.21"
         style="fill:#ffffff;fill-opacity:1;fill-rule:nonzero;stroke:none"
         id="path14"
         inkscape:connector-curvature="0" /><path
         d="m 1074.7,1647.08 c 0,909.57 734.23,1646.9 1639.99,1646.9 905.76,0 1640,-737.33 1640,-1646.9 C 4354.69,737.508 3620.45,0.175781 2714.69,0.175781 1808.93,0.175781 1074.7,737.508 1074.7,1647.08"
         style="fill:#ffffff;fill-opacity:1;fill-rule:nonzero;stroke:none"
         id="path16"
         inkscape:connector-curvature="0" /><path
         d="m 251.148,1199.22 c 0,491.48 396.747,889.9 886.172,889.9 489.42,0 886.17,-398.42 886.17,-889.9 0,-491.49 -396.75,-889.904 -886.17,-889.904 -489.425,0 -886.172,398.414 -886.172,889.904 z"
         style="fill:none;stroke:#dc0067;stroke-width:44.45199966;stroke-linecap:butt;stroke-linejoin:miter;stroke-miterlimit:3.8636899;stroke-dasharray:none;stroke-opacity:1"
         id="path18"
         inkscape:connector-curvature="0" /><path
         d="m 2273.06,1401.21 375.17,376.87 h 353.32 l -250.1,-251.25 500.65,0.01 v -251.22 l -500.65,-0.04 250.1,-251.25 h -353.32 l -375.17,376.88"
         style="fill:#ffb400;fill-opacity:1;fill-rule:nonzero;stroke:none"
         id="path20"
         inkscape:connector-curvature="0" /><path
         d="M 1160.27,1401.21 938.695,1623.79 H 730.02 l 147.714,-148.39 -295.66,-0.01 v -148.42 l 295.66,0.04 -147.714,-148.39 h 208.675 l 221.575,222.59"
         style="fill:#ffb400;fill-opacity:1;fill-rule:nonzero;stroke:none"
         id="path22"
         inkscape:connector-curvature="0" /><path
         d="m 1474.06,1647.09 c 0,688.07 555.44,1245.85 1240.63,1245.85 685.19,0 1240.63,-557.78 1240.63,-1245.85 0,-688.078 -555.44,-1245.856 -1240.63,-1245.856 -685.19,0 -1240.63,557.778 -1240.63,1245.856 z"
         style="fill:none;stroke:#dc0067;stroke-width:267.00601196;stroke-linecap:butt;stroke-linejoin:miter;stroke-miterlimit:3.8636899;stroke-dasharray:none;stroke-opacity:1"
         id="path24"
         inkscape:connector-curvature="0" /><path
         d="m 1763.92,1647.09 c 0,527.31 425.67,954.77 950.77,954.77 525.1,0 950.76,-427.46 950.76,-954.77 0,-527.31 -425.66,-954.77 -950.76,-954.77 -525.1,0 -950.77,427.46 -950.77,954.77 z"
         style="fill:none;stroke:#dc0067;stroke-width:44.45199966;stroke-linecap:butt;stroke-linejoin:miter;stroke-miterlimit:3.8636899;stroke-dasharray:none;stroke-opacity:1"
         id="path26"
         inkscape:connector-curvature="0" /></g><text
       xml:space="preserve"
       style="font-style:normal;font-variant:normal;font-weight:normal;font-stretch:normal;font-size:147.8286438px;line-height:1.25;font-family:'Alternate Gothic No2 D';-inkscape-font-specification:'Alternate Gothic No2 D, Normal';font-variant-ligatures:normal;font-variant-caps:normal;font-variant-numeric:normal;font-feature-settings:normal;text-align:start;letter-spacing:0px;word-spacing:0px;writing-mode:lr-tb;text-anchor:start;fill:#000000;fill-opacity:1;stroke:none;stroke-width:0.76994091"
       x="254.91154"
       y="-262.50198"
       id="text835"
       transform="scale(0.85916677,-1.1639184)"
       inkscape:export-xdpi="29"
       inkscape:export-ydpi="29"><tspan
         sodipodi:role="line"
         id="tspan833"
         x="254.91154"
         y="-262.50198"
         style="font-style:normal;font-variant:normal;font-weight:normal;font-stretch:normal;font-size:147.8286438px;font-family:'Alternate Gothic No2 D';-inkscape-font-specification:'Alternate Gothic No2 D, Normal';font-variant-ligatures:normal;font-variant-caps:normal;font-variant-numeric:normal;font-feature-settings:normal;text-align:start;writing-mode:lr-tb;text-anchor:start;stroke-width:0.76994091">treffen.kbu.freifunk.net</tspan></text>
</g></svg>